<svg xmlns="http://www.w3.org/2000/svg" xmlns:svg="http://www.w3.org/2000/svg" xmlns:xlink="http://www.w3.org/1999/xlink" id="svg135" width="479.164" height="644.313" version="1.1"><metadata id="metadata139"/><desc id="desc2">Created with Raphaël 2.2.0</desc><defs id="defs11"><path id="raphael-marker-block" d="M 5,0 0,2.5 5,5 Z" style="stroke-linecap:round"/><marker id="raphael-marker-endblock55-objpmie6" markerHeight="5" markerWidth="5" orient="auto" refX="2.5" refY="2.5"><use style="fill:#000;stroke:none;stroke-width:1" id="use5" width="100%" height="100%" x="0" y="0" transform="rotate(180,2.5,2.5)" xlink:href="#raphael-marker-block"/></marker><marker id="raphael-marker-endblock55-objjq706" markerHeight="5" markerWidth="5" orient="auto" refX="2.5" refY="2.5"><use style="fill:#000;stroke:none;stroke-width:1" id="use8" width="100%" height="100%" x="0" y="0" transform="rotate(180,2.5,2.5)" xlink:href="#raphael-marker-block"/></marker></defs><rect style="fill:none;stroke:#000;stroke-width:2" id="rect13" width="98.203" height="38" x="57.711" y="1" rx="0" ry="0"/><rect style="fill:none;stroke:none" id="rect15" width="78.203" height="18" x="67.406" y="11" rx="0" ry="0"/><text style="font-size:16px;font-family:'Andale Mono',monospace;text-anchor:middle;fill:#000;stroke:none" id="text19" x="106.813" y="20" font-size="16"><tspan id="tspan17" dy="6">Verifier</tspan></text><rect style="fill:none;stroke:#000;stroke-width:2" id="rect21" width="98.203" height="38" x="57.711" y="605.313" rx="0" ry="0"/><rect style="fill:none;stroke:none" id="rect23" width="78.203" height="18" x="67.406" y="615.313" rx="0" ry="0"/><text style="font-size:16px;font-family:'Andale Mono',monospace;text-anchor:middle;fill:#000;stroke:none" id="text27" x="106.813" y="624.313" font-size="16"><tspan id="tspan25" dy="6">Verifier</tspan></text><path style="fill:none;stroke:#000;stroke-width:2" id="path29" d="M 106.8125,39 V 605.3125"/><rect style="fill:none;stroke:#000;stroke-width:2" id="rect31" width="50.203" height="38" x="351.352" y="1" rx="0" ry="0"/><rect style="fill:none;stroke:none" id="rect33" width="30.203" height="18" x="361.047" y="11" rx="0" ry="0"/><text style="font-size:16px;font-family:'Andale Mono',monospace;text-anchor:middle;fill:#000;stroke:none" id="text37" x="376.453" y="20" font-size="16"><tspan id="tspan35" dy="6">TPM</tspan></text><rect style="fill:none;stroke:#000;stroke-width:2" id="rect39" width="50.203" height="38" x="351.352" y="605.313" rx="0" ry="0"/><rect style="fill:none;stroke:none" id="rect41" width="30.203" height="18" x="361.047" y="615.313" rx="0" ry="0"/><text style="font-size:16px;font-family:'Andale Mono',monospace;text-anchor:middle;fill:#000;stroke:none" id="text45" x="376.453" y="624.313" font-size="16"><tspan id="tspan43" dy="6">TPM</tspan></text><path style="fill:none;stroke:#000;stroke-width:2" id="path47" d="M 376.45312,39 V 605.3125"/><rect style="fill:#fff;stroke:#000;stroke-width:2" id="rect49" width="118.016" height="47.188" x="317.445" y="59" rx="0" ry="0"/><rect style="fill:#fff;stroke:none" id="rect51" width="108.016" height="37.188" x="322.641" y="64" rx="0" ry="0"/><text style="font-size:16px;font-family:'Andale Mono',monospace;text-anchor:middle;fill:#000;stroke:none" id="text57" x="376.453" y="82.594" font-size="16"><tspan id="tspan53" dy="-3.594">Loads</tspan> <tspan id="tspan55" x="376.453" dy="19.2">Trusted AIK</tspan></text><rect style="fill:#fff;stroke:#000;stroke-width:2" id="rect59" width="164.016" height="47.188" x="24.805" y="126.188" rx="0" ry="0"/><rect style="fill:#fff;stroke:none" id="rect61" width="154.016" height="37.188" x="30" y="131.188" rx="0" ry="0"/><text style="font-size:16px;font-family:'Andale Mono',monospace;text-anchor:middle;fill:#000;stroke:none" id="text67" x="106.813" y="149.781" font-size="16"><tspan id="tspan63" dy="-3.594">Generates Random</tspan> <tspan id="tspan65" x="106.813" dy="19.2">Challenge</tspan></text><rect style="fill:none;stroke:none" id="rect69" width="230.438" height="18" x="126.406" y="189.375" rx="0" ry="0"/><text style="font-size:16px;font-family:'Andale Mono',monospace;text-anchor:middle;fill:#000;stroke:none" id="text73" x="241.633" y="198.375" font-size="16"><tspan id="tspan71" dy="6">Quote(AIKphandle, Nonce)</tspan></text><path style="fill:none;stroke:#000;stroke-width:2;stroke-dasharray:none;marker-end:url(#raphael-marker-endblock55-objpmie6)" id="path75" d="m 106.8125,211.375 c 0,0 227.82186,0 264.64268,0"/><rect style="fill:#fff;stroke:#000;stroke-width:2" id="rect77" width="203.422" height="47.188" x="274.742" y="231.375" rx="0" ry="0"/><rect style="fill:#fff;stroke:none" id="rect79" width="193.422" height="37.188" x="279.438" y="236.375" rx="0" ry="0"/><text style="font-size:16px;font-family:'Andale Mono',monospace;text-anchor:middle;fill:#000;stroke:none" id="text85" x="376.453" y="254.969" font-size="16"><tspan id="tspan81" dy="-3.594">Signs Selected PCRs</tspan> <tspan id="tspan83" x="376.453" dy="19.2">And Nonce w/ AIKpriv</tspan></text><rect style="fill:none;stroke:none" id="rect87" width="249.641" height="18" x="116.813" y="294.563" rx="0" ry="0"/><text style="font-size:16px;font-family:'Andale Mono',monospace;text-anchor:middle;fill:#000;stroke:none" id="text91" x="241.633" y="303.563" font-size="16"><tspan id="tspan89" dy="6">&lt;Signature, Attested Blob&gt;</tspan></text><path style="fill:none;stroke:#000;stroke-width:2;stroke-dasharray:none;marker-end:url(#raphael-marker-endblock55-objjq706)" id="path93" d="m 376.45312,316.5625 c 0,0 -227.82185,0 -264.64267,0"/><rect style="fill:#fff;stroke:#000;stroke-width:2" id="rect95" width="184.219" height="47.188" x="14.703" y="336.563" rx="0" ry="0"/><rect style="fill:#fff;stroke:none" id="rect97" width="174.219" height="37.188" x="19.391" y="341.563" rx="0" ry="0"/><text style="font-size:16px;font-family:'Andale Mono',monospace;text-anchor:middle;fill:#000;stroke:none" id="text103" x="106.813" y="360.156" font-size="16"><tspan id="tspan99" dy="-3.594">Verifies Signature</tspan> <tspan id="tspan101" x="106.813" dy="19.2">Against AIKpub</tspan></text><rect style="fill:#fff;stroke:#000;stroke-width:2" id="rect105" width="154.016" height="47.188" x="29.805" y="403.75" rx="0" ry="0"/><rect style="fill:#fff;stroke:none" id="rect107" width="144.016" height="37.188" x="34.797" y="408.75" rx="0" ry="0"/><text style="font-size:16px;font-family:'Andale Mono',monospace;text-anchor:middle;fill:#000;stroke:none" id="text113" x="106.813" y="427.344" font-size="16"><tspan id="tspan109" dy="-3.594">Extracts Nonce</tspan> <tspan id="tspan111" x="106.813" dy="19.2">From Blob</tspan></text><rect style="fill:#fff;stroke:#000;stroke-width:2" id="rect115" width="154.016" height="47.188" x="29.805" y="470.938" rx="0" ry="0"/><rect style="fill:#fff;stroke:none" id="rect117" width="144.016" height="37.188" x="34.797" y="475.938" rx="0" ry="0"/><text style="font-size:16px;font-family:'Andale Mono',monospace;text-anchor:middle;fill:#000;stroke:none" id="text123" x="106.813" y="494.531" font-size="16"><tspan id="tspan119" dy="-3.594">Compares Nonce</tspan> <tspan id="tspan121" x="106.813" dy="19.2">To Challenge</tspan></text><rect style="fill:#fff;stroke:#000;stroke-width:2" id="rect125" width="211.625" height="47.188" x="1" y="538.125" rx="0" ry="0"/><rect style="fill:#fff;stroke:none" id="rect127" width="201.625" height="37.188" x="5.984" y="543.125" rx="0" ry="0"/><text style="font-size:16px;font-family:'Andale Mono',monospace;text-anchor:middle;fill:#000;stroke:none" id="text133" x="106.813" y="561.719" font-size="16"><tspan id="tspan129" dy="-3.594">Extracts PCRs digest</tspan> <tspan id="tspan131" x="106.813" dy="19.2">From Blob</tspan></text></svg>